 http://www.shotpix.com/images/59693376641170835035.jpg

Info:
Format : MPEG-4
Format profile : Base Media / Version 2
Codec ID : mp42
File size : 623 MiB
Duration : 1h 56mn
Overall bit rate : 747 Kbps
Encoded date : UTC 2013-03-10 15:17:41
Tagged date : UTC 2013-03-10 15:39:20
Writing application : HandBrake 0.9.8 2012071700



Video
ID : 1
Format : AVC
Format/Info : Advanced Video Codec
Format profile : Main@L3.0
Format settings, CABAC : Yes
Format settings, ReFrames : 4 frames
Format settings, GOP : M=4, N=31
Codec ID : avc1
Codec ID/Info : Advanced Video Coding
Duration : 1h 56mn
Bit rate mode : Variable
Bit rate : 583 Kbps
Width : 720 pixels
Height : 400 pixels
Display aspect ratio : 16:9
Frame rate mode : Variable
Frame rate : 25.000 fps
Minimum frame rate : 3.571 fps
Maximum frame rate : 25.000 fps
Color space : YUV
Chroma subsampling : 4:2:0
Bit depth : 8 bits
Scan type : Progressive
Bits/(Pixel*Frame) : 0.081
Stream size : 486 MiB (78%)
Writing library : x264 core 120
Encoded date : UTC 2013-03-10 15:17:41
Tagged date : UTC 2013-03-10 15:39:20
Material_Duration : 6992320
Material_StreamSize : 509717853
Material_FrameCount : 174800
Color primaries : BT.601-6 525, BT.1358 525, BT.1700 NTSC, SMPTE 170M
Transfer characteristics : BT.709-5, BT.1361
Matrix coefficients : BT.601-6 525, BT.1358 525, BT.1700 NTSC, SMPTE 170M



Audio
ID : 2
Format : AAC
Format/Info : Advanced Audio Codec
Format profile : LC
Codec ID : 40
Duration : 1h 56mn
Bit rate mode : Variable
Bit rate : 160 Kbps
Maximum bit rate : 202 Kbps
Channel(s) : 2 channels
Channel positions : Front: L R
Sampling rate : 48.0 KHz
Compression mode : Lossy
Stream size : 133 MiB (21%)
Encoded date : UTC 2013-03-10 15:17:41
Tagged date : UTC 2013-03-10 15:39:19
Material_Duration : 6991958
Material_StreamSize : 139824747



Screens: 
http://www.shotpix.com/images/25348802948147252020.png 
http://www.shotpix.com/images/80767219592595734763.png 
http://www.shotpix.com/images/00434750219536893360.png 
http://www.shotpix.com/images/47969305507704391729.png 
http://www.shotpix.com/images/40998797391715330321.png 
http://www.shotpix.com/images/48062725406535570847.png 
http://www.shotpix.com/images/10044599763162146784.png 
http://www.shotpix.com/images/00332413105877661733.png











